name Run_300 01_newCOP3_v24.mot
datacolumns 19
datarows 85
range 0.07000000000000001 0.154
DataType=double
version=3
OpenSimVersion=4.3-2021-08-27-4bc7ad9
endheader
time	R_ground_force_vx	R_ground_force_vy	R_ground_force_vz	R_ground_force_px	R_ground_force_py	R_ground_force_pz	L_ground_force_vx	L_ground_force_vy	L_ground_force_vz	L_ground_force_px	L_ground_force_py	L_ground_force_pz	R_ground_torque_x	R_ground_torque_y	R_ground_torque_z	L_ground_torque_x	L_ground_torque_y	L_ground_torque_z
0.07000000000000001	0	0	0	0	0	0	0	0	0	0	0	0	0	0	0	0	0	0
0.07099999999999999	0	0	0	0	0	0	0	0	0	0	0	0	0	0	0	0	0	0
0.07199999999999999	0	0	0	0	0	0	0	0	0	0	0	0	0	0	0	0	0	0
0.073	0	0	0	0	0	0	0	0	0	0	0	0	0	0	0	0	0	0
0.074	0	0	0	0	0	0	0	0	0	0	0	0	0	0	0	0	0	0
0.075	0	0	0	0	0	0	0	0	0	0	0	0	0	0	0	0	0	0
0.076	0	0	0	0	0	0	0	0	0	0	0	0	0	0	0	0	0	0
0.077	0	0	0	0	0	0	0	0	0	0	0	0	0	0	0	0	0	0
0.078	0	0	0	0	0	0	0	0	0	0	0	0	0	0	0	0	0	0
0.079	0	0	0	0	0	0	0	0	0	0	0	0	0	0	0	0	0	0
0.08	0	0	0	0	0	0	0	0	0	0	0	0	0	0	0	0	0	0
0.081	0	0	0	0	0	0	0	0	0	0	0	0	0	0	0	0	0	0
0.082	0	0	0	0	0	0	0	0	0	0	0	0	0	0	0	0	0	0
0.083	0	0	0	0	0	0	0	0	0	0	0	0	0	0	0	0	0	0
0.08400000000000001	0	0	0	0	0	0	0	0	0	0	0	0	0	0	0	0	0	0
0.08500000000000001	0	0	0	0	0	0	0	0	0	0	0	0	0	0	0	0	0	0
0.08599999999999999	0	0	0	0	0	0	0	0	0	0	0	0	0	0	0	0	0	0
0.08699999999999999	0	0	0	0	0	0	0	0	0	0	0	0	0	0	0	0	0	0
0.08799999999999999	0	0	0	0	0	0	0	0	0	0	0	0	0	0	0	0	0	0
0.089	0	0	0	0	0	0	0	0	0	0	0	0	0	0	0	0	0	0
0.09	0	0	0	0	0	0	-4.887954	10.756229	-0.742238	0.8436129999999999	0	-0.38025	0	0	0	-0	2.908358	-0
0.091	0	0	0	0	0	0	-5.849464	12.626743	-0.696688	0.84497	0	-0.386828	0	0	0	-0	2.836029	-0
0.092	0	0	0	0	0	0	-6.954833	14.803307	-0.626011	0.846301	0	-0.392257	0	0	0	-0	2.752338	-0
0.093	0	0	0	0	0	0	-8.219028	17.326698	-0.526007	0.847615	0	-0.396674	0	0	0	-0	2.657272	-0
0.094	0	0	0	0	0	0	-9.657605999999999	20.240931	-0.392154	0.84892	0	-0.400213	0	0	0	-0	2.550859	-0
0.095	0	0	0	0	0	0	-11.286528	23.593111	-0.219631	0.850223	0	-0.402997	0	0	0	-0	2.433176	-0
0.096	0	0	0	0	0	0	-13.12193	27.433191	-0.003345	0.851529	0	-0.405138	0	0	0	-0	2.304347	-0
0.097	0	0	0	0	0	0	-15.179851	31.81362	0.262029	0.852844	0	-0.406736	0	0	0	-0	2.164545	-0
0.098	0	0	0	0	0	0	-17.475895	36.788868	0.581996	0.854172	0	-0.407879	0	0	0	-0	2.01399	-0
0.099	0	0	0	0	0	0	-20.024862	42.414833	0.962183	0.855514	0	-0.408639	0	0	0	-0	1.852954	-0
0.1	0	0	0	0	0	0	-22.840317	48.7481	1.408263	0.856873	0	-0.409081	0	0	0	-0	1.68176	-0
0.101	0	0	0	0	0	0	-25.934124	55.845104	1.925874	0.858248	0	-0.409257	0	0	0	-0	1.500779	-0
0.102	0	0	0	0	0	0	-29.315948	63.761131	2.52052	0.859638	0	-0.409212	0	0	0	-0	1.310433	-0
0.103	0	0	0	0	0	0	-32.992748	72.54924800000001	3.197468	0.861039	0	-0.408981	0	0	0	-0	1.111195	-0
0.104	0	0	0	0	0	0	-36.96825	82.25913199999999	3.961624	0.862449	0	-0.408594	0	0	0	-0	0.903585	-0
0.105	0	0	0	0	0	0	-41.242443	92.935875	4.81741	0.863862	0	-0.408076	0	0	0	-0	0.688171	-0
0.106	0	0	0	0	0	0	-45.811115	104.618706	5.768627	0.865272	0	-0.407446	0	0	0	-0	0.465569	-0
0.107	0	0	0	0	0	0	-50.665428	117.339844	6.818312	0.866673	0	-0.40672	0	0	0	-0	0.236437	-0
0.108	0	0	0	0	0	0	-55.791584	131.123322	7.968594	0.868058	0	-0.40591	0	0	0	-0	0.001477	-0
0.109	0	0	0	0	0	0	-61.170578	145.984024	9.220551	0.869418	0	-0.405028	0	0	0	0	-0.238571	0
0.11	0	0	0	0	0	0	-66.778076	161.926804	10.574059	0.870744	0	-0.404082	0	0	0	0	-0.482928	0
0.111	0	0	0	0	0	0	-72.58440400000001	178.945953	12.027666	0.872028	0	-0.40308	0	0	0	0	-0.730784	0
0.112	0	0	0	0	0	0	-78.554688	197.024887	13.578461	0.873259	0	-0.402029	0	0	0	0	-0.981295	0
0.113	0	0	0	0	0	0	-84.64915499999999	216.136032	15.221961	0.874426	0	-0.400934	0	0	0	0	-1.233594	0
0.114	0	0	0	0	0	0	-90.823593	236.241272	16.952026	0.875519	0	-0.399801	0	0	0	0	-1.486791	0
0.115	0	0	0	0	0	0	-97.029938	257.292511	18.760794	0.876526	0	-0.398636	0	0	0	0	-1.739979	0
0.116	0	0	0	0	0	0	-103.217026	279.232697	20.638632	0.877434	0	-0.397443	0	0	0	0	-1.992235	0
0.117	0	0	0	0	0	0	-109.33149	301.997162	22.574146	0.878231	0	-0.396228	0	0	0	0	-2.242632	0
0.118	0	0	0	0	0	0	-115.318779	325.515045	24.554199	0.878903	0	-0.394997	0	0	0	0	-2.490239	0
0.119	0	0	0	0	0	0	-121.124237	349.711182	26.563988	0.879436	0	-0.393755	0	0	0	0	-2.734128	0
0.12	0	0	0	0	0	0	-126.694305	374.507935	28.587152	0.879817	0	-0.392507	0	0	0	0	-2.973377	0
0.121	0	0	0	0	0	0	-131.977722	399.827026	30.605923	0.880032	0	-0.39126	0	0	0	0	-3.207082	0
0.122	0	0	0	0	0	0	-136.926773	425.591522	32.601322	0.880066	0	-0.39002	0	0	0	0	-3.434355	0
0.123	0	0	0	0	0	0	-141.498398	451.72757	34.553398	0.879907	0	-0.388792	0	0	0	0	-3.654337	0
0.124	0	0	0	0	0	0	-145.655365	478.165802	36.441486	0.879542	0	-0.387583	0	0	0	0	-3.866196	0
0.125	0	0	0	0	0	0	-149.367203	504.842743	38.244534	0.878958	0	-0.386398	0	0	0	0	-4.06914	0
0.126	0	0	0	0	0	0	-152.611053	531.701599	39.94141	0.878147	0	-0.385244	0	0	0	0	-4.262419	0
0.127	0	0	0	0	0	0	-155.372238	558.692871	41.511299	0.8771	0	-0.384126	0	0	0	0	-4.445327	0
0.128	0	0	0	0	0	0	-157.64473	585.774719	42.934029	0.875811	0	-0.383049	0	0	0	0	-4.617214	0
0.129	0	0	0	0	0	0	-159.43129	612.912537	44.190495	0.874278	0	-0.382018	0	0	0	0	-4.777485	0
0.13	0	0	0	0	0	0	-160.743332	640.0787350000001	45.262997	0.872502	0	-0.381037	0	0	0	0	-4.925607	0
0.131	0	0	0	0	0	0	-161.600677	667.252258	46.135632	0.870486	0	-0.38011	0	0	0	0	-5.061111	0
0.132	0	0	0	0	0	0	-162.03096	694.417358	46.794628	0.868237	0	-0.379239	0	0	0	0	-5.183598	0
0.133	0	0	0	0	0	0	-162.068863	721.562866	47.228664	0.865768	0	-0.378426	0	0	0	0	-5.292739	0
0.134	0	0	0	0	0	0	-161.755188	748.6813959999999	47.429138	0.863093	0	-0.377671	0	0	0	0	-5.388278	0
0.135	0	0	0	0	0	0	-161.135834	775.768127	47.390388	0.860231	0	-0.376975	0	0	0	0	-5.470037	0
0.136	0	0	0	0	0	0	-160.26062	802.820129	47.10989	0.857201	0	-0.376337	0	0	0	0	-5.537912	0
0.137	0	0	0	0	0	0	-159.182098	829.835632	46.588337	0.854028	0	-0.375753	0	0	0	0	-5.591879	0
0.138	0	0	0	0	0	0	-157.954346	856.813538	45.829716	0.850738	0	-0.375222	0	0	0	0	-5.631989	0
0.139	0	0	0	0	0	0	-156.63179	883.752991	44.841263	0.847356	0	-0.374739	0	0	0	0	-5.658369	0
0.14	0	0	0	0	0	0	-155.268097	910.6530760000001	43.633389	0.843909	0	-0.374298	0	0	0	0	-5.671225	0
0.141	0	0	0	0	0	0	-153.9151	937.512878	42.219501	0.8404239999999999	0	-0.373896	0	0	0	0	-5.670833	0
0.142	0	0	0	0	0	0	-152.621841	964.3314820000001	40.615807	0.836927	0	-0.373525	0	0	0	0	-5.657541	0
0.143	0	0	0	0	0	0	-151.433746	991.107849	38.841	0.833441	0	-0.373179	0	0	0	0	-5.631769	0
0.144	0	0	0	0	0	0	-150.391922	1017.841125	36.915943	0.829989	0	-0.372851	0	0	0	0	-5.593996	0
0.145	0	0	0	0	0	0	-149.53244	1044.530884	34.863251	0.826589	0	-0.372536	0	0	0	0	-5.544765	0
0.146	0	0	0	0	0	0	-148.885956	1071.176636	32.706898	0.82326	0	-0.372225	0	0	0	0	-5.484679	0
0.147	0	0	0	0	0	0	-148.477234	1097.77832	30.471725	0.820013	0	-0.371912	0	0	0	0	-5.414387	0
0.148	0	0	0	0	0	0	-148.324936	1124.336182	28.183002	0.816859	0	-0.371593	0	0	0	0	-5.334591	0
0.149	0	0	0	0	0	0	-148.441391	1150.850464	25.865927	0.8138069999999999	0	-0.371261	0	0	0	0	-5.246032	0
0.15	0	0	0	0	0	0	-148.832504	1177.320801	23.545156	0.810858	0	-0.370912	0	0	0	0	-5.149489	0
0.151	0	0	0	0	0	0	-149.497818	1203.746582	21.24436	0.808015	0	-0.370542	0	0	0	0	-5.045773	0
0.152	0	0	0	0	0	0	-150.430496	1230.126099	18.985788	0.805276	0	-0.37015	0	0	0	0	-4.935722	0
0.153	0	0	0	0	0	0	-151.617569	1256.456055	16.789885	0.802636	0	-0.369732	0	0	0	0	-4.820193	0
0.154	0	0	0	0	0	0	-153.0401	1282.731079	14.674951	0.80009	0	-0.369289	0	0	0	0	-4.700061	0
